<svg width="54" height="24" viewBox="0 0 54 24" fill="none" xmlns="http://www.w3.org/2000/svg">
<path d="M23.28 8.392H7.632C7.12 8.392 6.672 8.44 6.288 8.536C4.56 8.952 3.696 10.184 3.696 12.232C3.696 13.64 4 14.648 4.608 15.256C5.216 15.832 6.224 16.12 7.632 16.12H21.072C22.288 16.12 22.992 15.704 23.184 14.872C23.248 14.616 23.28 14.168 23.28 13.528V8.392ZM26.352 14.104C26.352 16.696 25.408 18.248 23.52 18.76L20.688 19H7.68C5.344 19 3.68 18.568 2.688 17.704C1.28 16.488 0.576 14.68 0.576 12.28C0.576 10.328 1.152 8.696 2.304 7.384C2.944 6.712 3.648 6.232 4.416 5.944L7.2 5.512H23.28V0.711999H26.352V14.104ZM53.9314 12.136C53.9314 14.088 53.3554 15.72 52.2034 17.032C51.5954 17.736 50.8914 18.216 50.0914 18.472L47.3554 18.904H31.2274V23.8H28.2034V10.312C28.2034 7.752 29.1474 6.216 31.0354 5.704L33.8674 5.416H46.8754C49.1794 5.416 50.8434 5.864 51.8674 6.76C53.2434 7.944 53.9314 9.736 53.9314 12.136ZM50.8114 12.184C50.8114 10.808 50.5074 9.816 49.8994 9.208C49.2914 8.6 48.2994 8.296 46.9234 8.296H33.4354C32.2514 8.296 31.5474 8.712 31.3234 9.544C31.2594 9.8 31.2274 10.248 31.2274 10.888V16.024H46.9234C47.4354 16.024 47.8834 15.976 48.2674 15.88C49.9634 15.464 50.8114 14.232 50.8114 12.184Z" fill="white"/>
</svg>
