<svg width="21" height="20" viewBox="0 0 21 20" fill="none" xmlns="http://www.w3.org/2000/svg">
<g clip-path="url(#clip0_3_2136)">
<path d="M16.3333 1.66667H15.5V0.833333C15.5 0.61232 15.4122 0.400358 15.2559 0.244078C15.0996 0.0877974 14.8877 0 14.6667 0C14.4457 0 14.2337 0.0877974 14.0774 0.244078C13.9211 0.400358 13.8333 0.61232 13.8333 0.833333V1.66667H7.16667V0.833333C7.16667 0.61232 7.07887 0.400358 6.92259 0.244078C6.76631 0.0877974 6.55435 0 6.33333 0C6.11232 0 5.90036 0.0877974 5.74408 0.244078C5.5878 0.400358 5.5 0.61232 5.5 0.833333V1.66667H4.66667C3.562 1.66799 2.50296 2.1074 1.72185 2.88852C0.940735 3.66963 0.501323 4.72867 0.5 5.83333L0.5 15.8333C0.501323 16.938 0.940735 17.997 1.72185 18.7782C2.50296 19.5593 3.562 19.9987 4.66667 20H16.3333C17.438 19.9987 18.497 19.5593 19.2782 18.7782C20.0593 17.997 20.4987 16.938 20.5 15.8333V5.83333C20.4987 4.72867 20.0593 3.66963 19.2782 2.88852C18.497 2.1074 17.438 1.66799 16.3333 1.66667ZM2.16667 5.83333C2.16667 5.17029 2.43006 4.53441 2.8989 4.06557C3.36774 3.59673 4.00363 3.33333 4.66667 3.33333H16.3333C16.9964 3.33333 17.6323 3.59673 18.1011 4.06557C18.5699 4.53441 18.8333 5.17029 18.8333 5.83333V6.66667H2.16667V5.83333ZM16.3333 18.3333H4.66667C4.00363 18.3333 3.36774 18.0699 2.8989 17.6011C2.43006 17.1323 2.16667 16.4964 2.16667 15.8333V8.33333H18.8333V15.8333C18.8333 16.4964 18.5699 17.1323 18.1011 17.6011C17.6323 18.0699 16.9964 18.3333 16.3333 18.3333Z" fill="white"/>
<path d="M10.5 13.75C11.1904 13.75 11.75 13.1904 11.75 12.5C11.75 11.8096 11.1904 11.25 10.5 11.25C9.80964 11.25 9.25 11.8096 9.25 12.5C9.25 13.1904 9.80964 13.75 10.5 13.75Z" fill="white"/>
<path d="M6.33325 13.75C7.02361 13.75 7.58325 13.1904 7.58325 12.5C7.58325 11.8096 7.02361 11.25 6.33325 11.25C5.6429 11.25 5.08325 11.8096 5.08325 12.5C5.08325 13.1904 5.6429 13.75 6.33325 13.75Z" fill="white"/>
<path d="M14.6667 13.75C15.3571 13.75 15.9167 13.1904 15.9167 12.5C15.9167 11.8096 15.3571 11.25 14.6667 11.25C13.9764 11.25 13.4167 11.8096 13.4167 12.5C13.4167 13.1904 13.9764 13.75 14.6667 13.75Z" fill="white"/>
</g>
<defs>
<clipPath id="clip0_3_2136">
<rect width="20" height="20" fill="white" transform="translate(0.5)"/>
</clipPath>
</defs>
</svg>
