<svg width="20" height="20" viewBox="0 0 20 20" fill="none" xmlns="http://www.w3.org/2000/svg">
<path d="M7.16683 11.7667L10.9918 15.5917C11.148 15.7469 11.3592 15.834 11.5793 15.834C11.7995 15.834 12.0107 15.7469 12.1668 15.5917C12.2449 15.5142 12.3069 15.422 12.3492 15.3205C12.3915 15.2189 12.4133 15.11 12.4133 15C12.4133 14.89 12.3915 14.7811 12.3492 14.6795C12.3069 14.578 12.2449 14.4858 12.1668 14.4083L8.3335 10.5917C8.25539 10.5142 8.1934 10.422 8.15109 10.3205C8.10878 10.2189 8.087 10.11 8.087 9.99999C8.087 9.88998 8.10878 9.78106 8.15109 9.67951C8.1934 9.57796 8.25539 9.48579 8.3335 9.40832L12.1668 5.59165C12.3238 5.43584 12.4123 5.22407 12.4131 5.00294C12.4139 4.7818 12.3268 4.56941 12.171 4.41249C12.0152 4.25557 11.8034 4.16697 11.5823 4.16619C11.3611 4.16541 11.1488 4.25251 10.9918 4.40832L7.16683 8.23332C6.69866 8.70207 6.4357 9.33749 6.4357 9.99999C6.4357 10.6625 6.69866 11.2979 7.16683 11.7667Z" fill="white"/>
</svg>
