<svg width="129" height="27" viewBox="0 0 129 27" fill="none" xmlns="http://www.w3.org/2000/svg">
<path d="M13.5 0C14.8895 6.79798 20.202 12.1105 27 13.5C20.202 14.8895 14.8895 20.202 13.5 27C12.1105 20.202 6.79798 14.8895 0 13.5C6.79798 12.1105 12.1105 6.79798 13.5 0Z" fill="#2F5DD3"/>
<path d="M64.5 0C65.8895 6.79798 71.202 12.1105 78 13.5C71.202 14.8895 65.8895 20.202 64.5 27C63.1105 20.202 57.798 14.8895 51 13.5C57.798 12.1105 63.1105 6.79798 64.5 0Z" fill="#2F5DD3"/>
<path d="M115.5 0C116.889 6.79798 122.202 12.1105 129 13.5C122.202 14.8895 116.889 20.202 115.5 27C114.111 20.202 108.798 14.8895 102 13.5C108.798 12.1105 114.111 6.79798 115.5 0Z" fill="#2F5DD3"/>
</svg>
